HIERARCHY
ROOT Hip
{
    OFFSET 0.0 0.0 0.0
    CHANNELS 6 Xposition Yposition Zposition Zrotation Xrotation Yrotation
    JOINT RightHip
    {
        OFFSET -5.8272247314453125 0.0 0.0
        CHANNELS 3 Zrotation Xrotation Yrotation
        JOINT RightKnee
        {
            OFFSET 0.0 0.0 -42.04928207397461
            CHANNELS 3 Zrotation Xrotation Yrotation
            JOINT RightAnkle
            {
                OFFSET 0.0 0.0 -42.92363739013672
                CHANNELS 3 Zrotation Xrotation Yrotation
                End Site
                {
                    OFFSET 0.0 -17.169456481933594 0.0
                }
            }
        }
    }
    JOINT LeftHip
    {
        OFFSET 5.8272247314453125 0.0 0.0
        CHANNELS 3 Zrotation Xrotation Yrotation
        JOINT LeftKnee
        {
            OFFSET 0.0 0.0 -42.04928207397461
            CHANNELS 3 Zrotation Xrotation Yrotation
            JOINT LeftAnkle
            {
                OFFSET 0.0 0.0 -42.92363739013672
                CHANNELS 3 Zrotation Xrotation Yrotation
                End Site
                {
                    OFFSET 0.0 -17.169456481933594 0.0
                }
            }
        }
    }
    JOINT Spine
    {
        OFFSET 0.0 0.0 23.47943878173828
        CHANNELS 3 Zrotation Xrotation Yrotation
        JOINT Thorax
        {
            OFFSET 0.0 0.0 23.691129684448242
            CHANNELS 3 Zrotation Xrotation Yrotation
            JOINT Neck
            {
                OFFSET 0.0 0.0 9.064299583435059
                CHANNELS 3 Zrotation Xrotation Yrotation
                End Site
                {
                    OFFSET 0.0 0.0 3.6257197856903076
                }
            }
            JOINT LeftShoulder
            {
                OFFSET 10.000517845153809 0.0 0.0
                CHANNELS 3 Zrotation Xrotation Yrotation
                JOINT LeftElbow
                {
                    OFFSET 25.759489059448242 0.0 0.0
                    CHANNELS 3 Zrotation Xrotation Yrotation
                    JOINT LeftWrist
                    {
                        OFFSET 17.29940414428711 0.0 0.0
                        CHANNELS 3 Zrotation Xrotation Yrotation
                        End Site
                        {
                            OFFSET 6.919761657714844 0.0 0.0
                        }
                    }
                }
            }
            JOINT RightShoulder
            {
                OFFSET -10.000517845153809 0.0 0.0
                CHANNELS 3 Zrotation Xrotation Yrotation
                JOINT RightElbow
                {
                    OFFSET -25.759489059448242 0.0 0.0
                    CHANNELS 3 Zrotation Xrotation Yrotation
                    JOINT RightWrist
                    {
                        OFFSET -17.29940414428711 0.0 0.0
                        CHANNELS 3 Zrotation Xrotation Yrotation
                        End Site
                        {
                            OFFSET -6.919761657714844 0.0 0.0
                        }
                    }
                }
            }
        }
    }
}
MOTION
Frames: 5
Frame Time: 0.03333333333333333
0.0006626051617786288 93.83519744873047 -0.0005620193551294506 -128.96915918104696 -76.32319896736148 -130.59151880417693 -0.4727921496438955 11.256932148672114 -2.563445198335514 -0.07515485497034585 0.866079097099806 -9.591976911615262 -7.95138670365879e-16 -8.276074308844047e-33 1.1927080055488184e-15 0.036962787730088105 -0.764405832700061 3.568944169422167 0.0786870437564889 3.8690170658527303 1.0278393946957123 -1.5902773407317584e-15 -6.3611093629270335e-15 -8.827812596100317e-32 -0.7490672722905758 17.47765728515944 16.565132419362705 7.680743444301987 -1.0077428423637387e-06 5.049098704137139e-07 40.3104088587035 16.795971410562135 -0.49317348408417755 -3.1726205017494262 10.981612977250245 58.61059243208371 -62.011767267105284 1.5109002830172071e-06 -2.5741073635848874e-07 -2.648343778830095e-31 4.770832022195274e-15 6.361109362927033e-15 11.110704980934834 9.800865763800902 -59.70054100908458 107.59984686919375 -1.5061088482002794e-06 -3.760634613152298e-06 3.1805546814635168e-15 3.1805546814635168e-15 -6.3611093629270335e-15
0.0006217184709385037 93.83480834960938 -0.0004131379537284374 -121.37316828580194 -73.98996045254756 -122.23885490252489 0.110655878726139 9.434619523089129 -3.9519167024735435 0.1703229637118035 -2.9994450503005052 -12.207550418554314 -3.975693351829397e-16 6.361109362927033e-15 2.385416011097637e-15 0.02846556772861475 2.1047001524165236 6.745959322154686 0.2998461096958895 2.311308885226352 -3.967288606172688 -1.5902773407317584e-15 -6.2617170291312985e-15 -1.5902773407317584e-15 0.19047798021746057 15.907126793188459 14.427885596484478 8.13083746471549 -6.7561527004996535e-06 3.9795042209739056e-07 49.76958892995612 18.548266144723886 -5.571637346859072 -2.326934792646103 10.791868976423741 59.494460324116055 -62.16932316404306 -1.260379826320483e-06 -1.8500005452850476e-06 0.0 -4.770832022195274e-15 0.0 13.799045942636448 10.438885251296206 -57.16672715069188 107.59665592170933 -2.9271140400104703e-07 6.775617009778198e-07 3.1805546814635168e-15 -3.1805546814635168e-15 6.3611093629270335e-15
0.0007135751657187939 93.83499908447266 -0.00044975895434617996 -122.19597409041148 -73.42486491423355 -123.30077180035876 0.06927220656352312 8.247757996811991 -2.5328719312044012 0.17701238641552777 -5.018229619169682 -18.5251242674102 7.951386703658792e-16 6.3611093629270335e-15 7.951386703658792e-16 0.024073768950353302 2.4019840143625593 11.537178190221578 1.003781581987083 4.714765330228418 -11.784100136351032 -7.951386703658791e-16 0.0 0.0 0.12708119893759448 14.728033744528208 14.98784936305357 7.847765518348571 1.0688399399279523e-06 -3.572768331505202e-07 54.40384243455441 21.67368049487549 -6.157653470951141 1.6729809801104876 9.648018456424902 60.22190525201965 -56.823646184508476 -6.596968046847935e-07 -1.5797168402475956e-06 -6.361109362927033e-15 3.531125038440127e-31 -6.361109362927033e-15 20.805754015708445 13.047583749144225 -59.0216826538098 112.31106616882553 -6.494576622608702e-07 -6.910704780014905e-07 3.180554681463516e-15 0.0 0.0
0.0008831844897940755 93.83460998535156 -0.0004077944904565811 -131.69192371019204 -76.89231259310888 -132.79111215152625 -0.06254742658753021 7.3701527407619585 -2.0205780685045145 0.2555779607541317 -5.902610287933986 -17.943306899418253 -7.951386703658792e-16 1.987846675914698e-16 -7.951386703658792e-16 -0.01324977610303591 2.0619462718742674 10.173870994980778 1.352184418177586 7.883628762201027 -4.0397975433322575 -7.951386703658794e-16 -6.311413196029168e-15 -7.951386703658794e-16 -0.12354512260086584 14.602460439262115 13.766922255338804 6.36409320050759 2.2183458013040675e-06 2.888323531288721e-07 50.037070116131346 22.589792972641398 -4.497819976300913 -3.721441703718728 11.305451337557407 62.01764461382565 -56.1183947428289 -1.3265813548319465e-06 -1.0639172107603578e-06 -8.827812596100317e-32 -1.5902773407317584e-15 -6.3611093629270335e-15 21.21610520547721 13.658967112199123 -54.67780367803016 116.17416684421731 4.1715890596976665e-07 -5.348729949069158e-06 0.0 0.0 0.0
0.0009124220232479274 93.83417510986328 -0.00037626049015671015 -126.92240162948364 -75.43787343490817 -129.82631580471443 -0.030005688574733628 5.675830706202325 -0.9577009193499427 0.10431511866274776 -4.874264529220705 -16.75413489617646 -7.951386703658792e-16 6.3611093629270335e-15 1.5902773407317584e-15 0.0032461048675923943 0.09269707173334396 12.497072190464129 1.3522855165194871 6.240536647963024 -10.321434689687942 1.5902773407317584e-15 0.0 0.0 -0.08019625609140615 15.39342862374859 15.924598954997963 7.866430782319796 2.9175746236867893e-06 2.8855794513918805e-08 46.778123880997384 24.428990437648707 -0.38814520592728735 0.44362007490685634 8.374368709251652 61.46641844183439 -54.969647056626066 -5.585749463969712e-07 -1.5234505364839205e-06 0.0 0.0 0.0 19.87351541152564 10.597785138010105 -51.26938696317397 117.72189175837634 -1.1339268205604833e-06 -6.230851397454865e-07 -3.1805546814635168e-15 -1.7655625192200634e-31 6.3611093629270335e-15
